<svg version="1" xmlns="http://www.w3.org/2000/svg" width="304" height="304" viewBox="0 0 228.000000 228.000000"><path d="M27.8 5.9C18.5 9.6 11.7 15.9 7.2 25l-2.7 5.5v166l2.7 5.7c6 12.8 17.7 20.8 31.2 21.4 14.9.7 26.8-5.7 34.4-18.5 4.1-6.9 4.8-14 4.7-45.9 0-16 0-29.2.1-29.2s20 19.8 44.2 44c51.1 51.1 48.9 49.5 65.7 49.5 9 0 10.5-.3 15.7-2.9 7.5-3.8 14-10.2 17.5-17.3l2.8-5.8v-167l-2.4-4.8c-1.3-2.7-4.5-7.2-7.2-10.1-17-18.6-48.2-14.1-59.3 8.6-3.8 7.8-4.2 11.9-4.1 44 0 15.9-.3 28.8-.6 28.8-.4 0-20.2-19.6-44.1-43.5C56 3.7 57.4 4.7 41.5 4.3c-6.9-.2-10.1.1-13.7 1.6z"/></svg>